<svg xmlns="http://www.w3.org/2000/svg" xmlns:xlink="http://www.w3.org/1999/xlink" version="1.1" x="0px" y="0px" viewBox="0 0 64 80" style="enable-background:new 0 0 64 64;" xml:space="preserve"><path d="M42,18c0.265,0,0.52-0.105,0.707-0.293L54.414,6h1.77C56.598,7.161,57.698,8,59,8c1.654,0,3-1.346,3-3s-1.346-3-3-3  c-1.302,0-2.402,0.839-2.816,2H54c-0.265,0-0.52,0.105-0.707,0.293L41.586,16H40v-1c0-1.654-1.346-3-3-3s-3,1.346-3,3v3h-5.101  c-0.465-2.279-2.484-4-4.899-4c-1.252,0-2.384,0.479-3.262,1.242l-9.256-7.068C11.804,7.513,12,6.782,12,6c0-2.757-2.243-5-5-5  S2,3.243,2,6s2.243,5,5,5c1.252,0,2.384-0.479,3.262-1.242l9.256,7.068c-0.181,0.371-0.332,0.758-0.417,1.173h-7.202  C11.434,15.721,9.414,14,7,14c-2.757,0-5,2.243-5,5s2.243,5,5,5c1.252,0,2.384-0.479,3.262-1.242l3.59,2.742l-3.59,2.742  C9.384,27.479,8.252,27,7,27c-2.757,0-5,2.243-5,5s2.243,5,5,5c1.252,0,2.384-0.479,3.262-1.242l3.59,2.742l-3.59,2.742  C9.384,40.479,8.252,40,7,40c-2.757,0-5,2.243-5,5s2.243,5,5,5c2.414,0,4.434-1.721,4.899-4h7.202  c0.085,0.415,0.236,0.802,0.417,1.173l-9.256,7.068C9.384,53.479,8.252,53,7,53c-2.757,0-5,2.243-5,5s2.243,5,5,5s5-2.243,5-5  c0-0.782-0.196-1.513-0.518-2.173l9.256-7.068C21.616,49.521,22.748,50,24,50c2.414,0,4.434-1.721,4.899-4H34v2c0,1.654,1.346,3,3,3  s3-1.346,3-3h1.586l11.707,11.707C53.48,59.895,53.735,60,54,60h2.184c0.414,1.161,1.514,2,2.816,2c1.654,0,3-1.346,3-3  s-1.346-3-3-3c-1.302,0-2.402,0.839-2.816,2h-1.77L42.707,46.293C42.52,46.105,42.265,46,42,46h-2v-3h4.586l7.707,7.707  C52.48,50.895,52.735,51,53,51h3.184c0.414,1.161,1.514,2,2.816,2c1.654,0,3-1.346,3-3s-1.346-3-3-3c-1.302,0-2.402,0.839-2.816,2  h-2.77l-7.707-7.707C45.52,41.105,45.265,41,45,41h-5v-3h8.586l3.707,3.707C52.48,41.895,52.735,42,53,42h3.184  c0.414,1.161,1.514,2,2.816,2c1.654,0,3-1.346,3-3s-1.346-3-3-3c-1.302,0-2.402,0.839-2.816,2h-2.77l-3.707-3.707  C49.52,36.105,49.265,36,49,36h-9v-3h16.184c0.414,1.161,1.514,2,2.816,2c1.654,0,3-1.346,3-3s-1.346-3-3-3  c-1.302,0-2.402,0.839-2.816,2H40v-3h9c0.265,0,0.52-0.105,0.707-0.293L53.414,24h2.77c0.414,1.161,1.514,2,2.816,2  c1.654,0,3-1.346,3-3s-1.346-3-3-3c-1.302,0-2.402,0.839-2.816,2H53c-0.265,0-0.52,0.105-0.707,0.293L48.586,26H40v-3h5  c0.265,0,0.52-0.105,0.707-0.293L53.414,15h2.77c0.414,1.161,1.514,2,2.816,2c1.654,0,3-1.346,3-3s-1.346-3-3-3  c-1.302,0-2.402,0.839-2.816,2H53c-0.265,0-0.52,0.105-0.707,0.293L44.586,21H40v-3H42z M59,4c0.551,0,1,0.448,1,1s-0.449,1-1,1  s-1-0.448-1-1S58.449,4,59,4z M59,58c0.551,0,1,0.448,1,1s-0.449,1-1,1s-1-0.448-1-1S58.449,58,59,58z M59,49c0.551,0,1,0.448,1,1  s-0.449,1-1,1s-1-0.448-1-1S58.449,49,59,49z M59,40c0.551,0,1,0.448,1,1s-0.449,1-1,1s-1-0.448-1-1S58.449,40,59,40z M59,31  c0.551,0,1,0.448,1,1s-0.449,1-1,1s-1-0.448-1-1S58.449,31,59,31z M59,22c0.551,0,1,0.448,1,1s-0.449,1-1,1s-1-0.448-1-1  S58.449,22,59,22z M59,13c0.551,0,1,0.448,1,1s-0.449,1-1,1s-1-0.448-1-1S58.449,13,59,13z M28.899,20H34v11h-5.101  c-0.465-2.279-2.484-4-4.899-4c-1.252,0-2.384,0.479-3.262,1.242l-3.59-2.742l3.59-2.742C21.616,23.521,22.748,24,24,24  C26.414,24,28.434,22.279,28.899,20z M21,32c0-1.654,1.346-3,3-3s3,1.346,3,3s-1.346,3-3,3S21,33.654,21,32z M24,16  c1.654,0,3,1.346,3,3s-1.346,3-3,3s-3-1.346-3-3S22.346,16,24,16z M7,9C5.346,9,4,7.654,4,6s1.346-3,3-3s3,1.346,3,3S8.654,9,7,9z   M7,22c-1.654,0-3-1.346-3-3s1.346-3,3-3s3,1.346,3,3S8.654,22,7,22z M11.482,21.173c0.181-0.371,0.332-0.758,0.417-1.173h7.202  c0.085,0.415,0.236,0.802,0.417,1.173L15.5,24.242L11.482,21.173z M19.518,29.827c-0.181,0.371-0.332,0.758-0.417,1.173h-7.202  c-0.085-0.415-0.236-0.802-0.417-1.173l4.018-3.068L19.518,29.827z M7,35c-1.654,0-3-1.346-3-3s1.346-3,3-3s3,1.346,3,3  S8.654,35,7,35z M11.482,34.173c0.181-0.371,0.332-0.758,0.417-1.173h7.202c0.085,0.415,0.236,0.802,0.417,1.173L15.5,37.242  L11.482,34.173z M19.101,44h-7.202c-0.085-0.415-0.236-0.802-0.417-1.173l4.018-3.068l4.018,3.068  C19.337,43.198,19.186,43.585,19.101,44z M7,48c-1.654,0-3-1.346-3-3s1.346-3,3-3s3,1.346,3,3S8.654,48,7,48z M7,61  c-1.654,0-3-1.346-3-3s1.346-3,3-3s3,1.346,3,3S8.654,61,7,61z M24,48c-1.654,0-3-1.346-3-3s1.346-3,3-3s3,1.346,3,3  S25.654,48,24,48z M28.899,44c-0.465-2.279-2.484-4-4.899-4c-1.252,0-2.384,0.479-3.262,1.242l-3.59-2.742l3.59-2.742  C21.616,36.521,22.748,37,24,37c2.414,0,4.434-1.721,4.899-4H34v11H28.899z M38,48c0,0.552-0.449,1-1,1s-1-0.448-1-1V15  c0-0.552,0.449-1,1-1s1,0.448,1,1V48z"/><rect x="30" y="23" width="2" height="2"/><rect x="30" y="27" width="2" height="2"/><rect x="30" y="35" width="2" height="2"/><rect x="30" y="39" width="2" height="2"/><text x="0" y="79" fill="#000000" font-size="5px" font-weight="bold" font-family="'Helvetica Neue', Helvetica, Arial-Unicode, Arial, Sans-serif">Created by Becris</text><text x="0" y="84" fill="#000000" font-size="5px" font-weight="bold" font-family="'Helvetica Neue', Helvetica, Arial-Unicode, Arial, Sans-serif">from the Noun Project</text></svg>