<?xml version="1.0" encoding="utf-8"?>
<svg version="1.1" id="Layer_1" xmlns="http://www.w3.org/2000/svg" xmlns:xlink="http://www.w3.org/1999/xlink" x="0px" y="0px"
	 viewBox="0 0 512 512" style="enable-background:new 0 0 512 512;" xml:space="preserve">
<g>
	<path d="M652.6,55c9.4,1.4,18.7,2.7,28.1,4.1C804,180.7,837.9,414.4,905.7,589.3c28.1,70.9,56.2,141.9,84.3,212.8c-48.4-27.8-147.2-160.8-224.9-128.5c-87.4,36.2-249.9,316.2-345.4,265.1c-19.2-63.6-65-198-116.5-232.9c-33.4-22.7-55.5,8.1-92.4,0C185.4,700.2,15.6,568.9,10,545c91-36.1,182.1-72.3,273.1-108.5c28.1-33.4,56.2-67,84.3-100.4c47.3-30.1,95.3-29.8,128.5-72.3C549.9,195,585.4,110.9,652.6,55z"/>
</g>
</svg>