<?xml version="1.0" encoding="utf-8"?>
<!-- Svg Vector Icons : http://www.onlinewebfonts.com/icon -->
<!DOCTYPE svg PUBLIC "-//W3C//DTD SVG 1.1//EN" "http://www.w3.org/Graphics/SVG/1.1/DTD/svg11.dtd">
<svg version="1.1" xmlns="http://www.w3.org/2000/svg" xmlns:xlink="http://www.w3.org/1999/xlink" x="0px" y="0px" viewBox="0 0 1000 1000" enable-background="new 0 0 1000 1000" xml:space="preserve">
<metadata> Svg Vector Icons : http://www.onlinewebfonts.com/icon </metadata>
<g><g id="_x35_151e0c8492e5103c096af88a51fbe2a"><path d="M667.2,56.5l0-1.4c-0.2,0-0.4,0-0.6,0c-2.5,0-5,0.2-7.4,0.6c-3.9,0.2-7.6,1.3-11.4,3.2c-28.2,11.6-50.4,48.5-77.2,93.2c-39.3,65.5-88.2,147-172.1,167.4c-33.1,8.1-72.2,54.9-109.4,102.3c-3.4,4.3-6.5,8.3-9.3,11.8l-0.9,1.1L10,545.9l218,153.4c91.5-43,119.5,39.3,195.3,245.5C575.8,927.8,678.1,684.1,763.1,668c105.4-19.9,114.2,60.8,226.9,130.4C876.8,553.4,756.6,79.4,667.2,56.5z M338.9,615.7L230,670.9L60.5,551.5L289,457l44.3,33l67.9,51.5C382.3,567.8,361.6,592.8,338.9,615.7z M415.8,520.7l-67.6-50.3L306.7,439c0.5-0.7,1.1-1.4,1.6-2.1c23.9-30.4,68.3-86.9,96-93.6c77.1-18.8,125.8-80.5,163.8-140.3C531.5,295.4,486,416.3,415.8,520.7z"/></g></g>
</svg>