<?xml version="1.0" encoding="utf-8"?>
<!-- Generator: Adobe Illustrator 22.1.0, SVG Export Plug-In . SVG Version: 6.00 Build 0)  -->
<svg version="1.1" id="Layer_1" xmlns="http://www.w3.org/2000/svg" xmlns:xlink="http://www.w3.org/1999/xlink" x="0px" y="0px"
	 viewBox="0 0 512 512" style="enable-background:new 0 0 512 512;" xml:space="preserve">
<g>
	<path d="M481,233.2C481,150,380.2,82.5,256,82.5S31,150,31,233.2c0,74.2,80,135.9,185.4,148.3v47.9h76.8v-47.6
		c18.8-2.1,36.9-5.7,53.8-10.8l31.1,58.4h86.7l-52.2-88.1C454.7,314,481,275.7,481,233.2L481,233.2z M119.5,244.5
		c0-56.9,76.6-103,171-103s164.1,31.5,164.1,103c0,38.8-20.5,65.8-54.4,82.4c-1.9-1.2-3.6-2.2-5-2.9c-7.9-4-21.5-8.1-21.5-8.1
		s67.1-5,67.1-71.8S370.6,176,370.6,176H216.4v161.3C159,320.7,119.5,285.4,119.5,244.5L119.5,244.5z M293.8,274.1v-43.1
		c44.8,0,68-5.3,68,21.1C361.8,280.5,332.2,274.1,293.8,274.1L293.8,274.1z M293.1,330.3h20.6c8.4,0,14.6,9.1,18.6,14.9
		c-12.5,1.5-25.6,2.2-39.2,2.2L293.1,330.3L293.1,330.3z"/>
</g>
</svg>
