<?xml version="1.0" encoding="UTF-8" standalone="no"?>
<!-- Created with Vectornator (http://vectornator.io/) -->

<svg
   height="100.0pt"
   stroke-miterlimit="10"
   style="fill-rule:nonzero;clip-rule:evenodd;stroke-linecap:round;stroke-linejoin:round;"
   version="1.1"
   viewBox="0 0 100 100"
   width="100.0pt"
   xml:space="preserve"
   id="svg13"
   sodipodi:docname="Array Icon2.svg"
   inkscape:version="1.3.2 (091e20e, 2023-11-25)"
   xmlns:inkscape="http://www.inkscape.org/namespaces/inkscape"
   xmlns:sodipodi="http://sodipodi.sourceforge.net/DTD/sodipodi-0.dtd"
   xmlns="http://www.w3.org/2000/svg"
   xmlns:svg="http://www.w3.org/2000/svg"><sodipodi:namedview
   id="namedview13"
   pagecolor="#ffffff"
   bordercolor="#000000"
   borderopacity="0.25"
   inkscape:showpageshadow="2"
   inkscape:pageopacity="0.0"
   inkscape:pagecheckerboard="0"
   inkscape:deskcolor="#d1d1d1"
   inkscape:document-units="pt"
   inkscape:zoom="6.4875"
   inkscape:cx="70.057803"
   inkscape:cy="66.666667"
   inkscape:window-width="1392"
   inkscape:window-height="1212"
   inkscape:window-x="0"
   inkscape:window-y="444"
   inkscape:window-maximized="0"
   inkscape:current-layer="svg13" />
<defs
   id="defs1">













</defs>
<path
   d="m 7.12963,6.17629 c 0,10.54331 1.67172,20.42581 4.43897,29.92521 5.2877,18.1519 14.5755,34.9053 23.8432,52.1987"
   fill="none"
   opacity="1"
   stroke="#000000"
   stroke-linecap="round"
   stroke-linejoin="round"
   stroke-width="5.08575"
   id="path1" /><path
   d="m 29.8918,88.3002 c 0,-3.0505 2.4713,-5.5232 5.52,-5.5232 3.0484,0 5.5198,2.4727 5.5198,5.5232 0,3.0506 -2.4714,5.5235 -5.5198,5.5235 -3.0487,0 -5.52,-2.4729 -5.52,-5.5235 z"
   fill="#000000"
   fill-rule="nonzero"
   opacity="1"
   stroke="#000000"
   stroke-linecap="round"
   stroke-linejoin="round"
   stroke-width="1.84398"
   id="path2" /><path
   d="m 15.6401,59.6294 c 0,-3.0503 2.5208,-5.5232 5.6306,-5.5232 3.1097,0 5.6304,2.4729 5.6304,5.5232 0,3.0506 -2.5207,5.5235 -5.6304,5.5235 -3.1098,0 -5.6306,-2.4729 -5.6306,-5.5235 z"
   fill="#000000"
   fill-rule="nonzero"
   opacity="1"
   stroke="#000000"
   stroke-linecap="round"
   stroke-linejoin="round"
   stroke-width="1.84398"
   id="path3" /><path
   d="m 15.6401,59.6294 c 0,-3.0503 2.5208,-5.5232 5.6306,-5.5232 3.1097,0 5.6304,2.4729 5.6304,5.5232 0,3.0506 -2.5207,5.5235 -5.6304,5.5235 -3.1098,0 -5.6306,-2.4729 -5.6306,-5.5235 z"
   fill="#000000"
   fill-rule="nonzero"
   opacity="1"
   stroke="#000000"
   stroke-linecap="round"
   stroke-linejoin="round"
   stroke-width="1.84398"
   id="path4" /><path
   d="m 57.9405,11.6997 c 0,-3.05051 2.5209,-5.52341 5.6306,-5.52341 3.1096,0 5.6306,2.4729 5.6306,5.52341 0,3.0504 -2.521,5.5234 -5.6306,5.5234 -3.1097,0 -5.6306,-2.473 -5.6306,-5.5234 z"
   fill="#000000"
   fill-rule="nonzero"
   opacity="1"
   stroke="#000000"
   stroke-linecap="round"
   stroke-linejoin="round"
   stroke-width="1.84398"
   id="path5" /><path
   d="m 57.9405,30.4038 c 0,-3.0506 2.5209,-5.5233 5.6306,-5.5233 3.1096,0 5.6306,2.4727 5.6306,5.5233 0,3.0505 -2.521,5.5235 -5.6306,5.5235 -3.1097,0 -5.6306,-2.473 -5.6306,-5.5235 z"
   fill="#000000"
   fill-rule="nonzero"
   opacity="1"
   stroke="#000000"
   stroke-linecap="round"
   stroke-linejoin="round"
   stroke-width="1.84398"
   id="path6" /><path
   d="m 81.6094,41.2789 c 0,-3.0506 2.5207,-5.5235 5.6304,-5.5235 3.1098,0 5.6306,2.4729 5.6306,5.5235 0,3.0504 -2.5208,5.5233 -5.6306,5.5233 -3.1097,0 -5.6304,-2.4729 -5.6304,-5.5233 z"
   fill="#000000"
   fill-rule="nonzero"
   opacity="1"
   stroke="#000000"
   stroke-linecap="round"
   stroke-linejoin="round"
   stroke-width="1.84398"
   id="path7" /><path
   d="m 35.301,41.7148 c 0,-3.0503 2.5207,-5.5233 5.6306,-5.5233 3.1096,0 5.6304,2.473 5.6304,5.5233 0,3.0506 -2.5208,5.5235 -5.6304,5.5235 -3.1099,0 -5.6306,-2.4729 -5.6306,-5.5235 z"
   fill="#000000"
   fill-rule="nonzero"
   opacity="1"
   stroke="#000000"
   stroke-linecap="round"
   stroke-linejoin="round"
   stroke-width="1.84398"
   id="path8" /><path
   d="M 37.2528,43.8891 63.5711,11.6997"
   fill="none"
   opacity="1"
   stroke="#000000"
   stroke-linecap="butt"
   stroke-linejoin="round"
   stroke-width="5.2426"
   id="path9" /><path
   d="M 89.7145,41.7148 63.5711,11.6997"
   fill="none"
   opacity="1"
   stroke="#000000"
   stroke-linecap="butt"
   stroke-linejoin="round"
   stroke-width="5.2426"
   id="path10" /><path
   d="M 40.9316,41.7148 H 88.4102"
   fill="none"
   opacity="1"
   stroke="#000000"
   stroke-linecap="butt"
   stroke-linejoin="round"
   stroke-width="5.2426"
   id="path11" /><path
   d="M 40.2154,41.9793 63.5711,30.4038"
   fill="none"
   opacity="1"
   stroke="#000000"
   stroke-linecap="butt"
   stroke-linejoin="round"
   stroke-width="5.2426"
   id="path12" /><path
   d="M 88.5861,41.6194 64.8519,30.8155"
   fill="none"
   opacity="1"
   stroke="#000000"
   stroke-linecap="butt"
   stroke-linejoin="round"
   stroke-width="5.2426"
   id="path13" />
</svg>
