<?xml version="1.0" encoding="UTF-8" standalone="no"?>
<!DOCTYPE svg PUBLIC "-//W3C//DTD SVG 1.1//EN" "http://www.w3.org/Graphics/SVG/1.1/DTD/svg11.dtd">
<!-- Created with Vectornator (http://vectornator.io/) -->
<svg height="100.0pt" stroke-miterlimit="10" style="fill-rule:nonzero;clip-rule:evenodd;stroke-linecap:round;stroke-linejoin:round;" version="1.1" viewBox="0 0 100 100" width="100.0pt" xml:space="preserve" xmlns="http://www.w3.org/2000/svg" xmlns:xlink="http://www.w3.org/1999/xlink">
<defs/>
<g id="Layer-1">
<path d="M7.12963 6.17629C7.12963 16.7196 8.80135 26.6021 11.5686 36.1015C16.8563 54.2534 26.1441 71.0068 35.4118 88.3002" fill="none" opacity="1" stroke="#000000" stroke-linecap="round" stroke-linejoin="round" stroke-width="5.08575"/>
<path d="M29.8918 88.3002C29.8918 85.2497 32.3631 82.777 35.4118 82.777C38.4602 82.777 40.9316 85.2497 40.9316 88.3002C40.9316 91.3508 38.4602 93.8237 35.4118 93.8237C32.3631 93.8237 29.8918 91.3508 29.8918 88.3002Z" fill="#000000" fill-rule="nonzero" opacity="1" stroke="#000000" stroke-linecap="round" stroke-linejoin="round" stroke-width="1.84398"/>
<path d="M15.6401 59.6294C15.6401 56.5791 18.1609 54.1062 21.2707 54.1062C24.3804 54.1062 26.9011 56.5791 26.9011 59.6294C26.9011 62.68 24.3804 65.1529 21.2707 65.1529C18.1609 65.1529 15.6401 62.68 15.6401 59.6294Z" fill="#000000" fill-rule="nonzero" opacity="1" stroke="#000000" stroke-linecap="round" stroke-linejoin="round" stroke-width="1.84398"/>
<path d="M15.6401 59.6294C15.6401 56.5791 18.1609 54.1062 21.2707 54.1062C24.3804 54.1062 26.9011 56.5791 26.9011 59.6294C26.9011 62.68 24.3804 65.1529 21.2707 65.1529C18.1609 65.1529 15.6401 62.68 15.6401 59.6294Z" fill="#000000" fill-rule="nonzero" opacity="1" stroke="#000000" stroke-linecap="round" stroke-linejoin="round" stroke-width="1.84398"/>
<path d="M57.9405 11.6997C57.9405 8.64919 60.4614 6.17629 63.5711 6.17629C66.6807 6.17629 69.2017 8.64919 69.2017 11.6997C69.2017 14.7501 66.6807 17.2231 63.5711 17.2231C60.4614 17.2231 57.9405 14.7501 57.9405 11.6997Z" fill="#000000" fill-rule="nonzero" opacity="1" stroke="#000000" stroke-linecap="round" stroke-linejoin="round" stroke-width="1.84398"/>
<path d="M57.9405 30.4038C57.9405 27.3532 60.4614 24.8805 63.5711 24.8805C66.6807 24.8805 69.2017 27.3532 69.2017 30.4038C69.2017 33.4543 66.6807 35.9273 63.5711 35.9273C60.4614 35.9273 57.9405 33.4543 57.9405 30.4038Z" fill="#000000" fill-rule="nonzero" opacity="1" stroke="#000000" stroke-linecap="round" stroke-linejoin="round" stroke-width="1.84398"/>
<path d="M81.6094 41.2789C81.6094 38.2283 84.1301 35.7554 87.2398 35.7554C90.3496 35.7554 92.8704 38.2283 92.8704 41.2789C92.8704 44.3293 90.3496 46.8022 87.2398 46.8022C84.1301 46.8022 81.6094 44.3293 81.6094 41.2789Z" fill="#000000" fill-rule="nonzero" opacity="1" stroke="#000000" stroke-linecap="round" stroke-linejoin="round" stroke-width="1.84398"/>
<path d="M35.301 41.7148C35.301 38.6645 37.8217 36.1915 40.9316 36.1915C44.0412 36.1915 46.562 38.6645 46.562 41.7148C46.562 44.7654 44.0412 47.2383 40.9316 47.2383C37.8217 47.2383 35.301 44.7654 35.301 41.7148Z" fill="#000000" fill-rule="nonzero" opacity="1" stroke="#000000" stroke-linecap="round" stroke-linejoin="round" stroke-width="1.84398"/>
<path d="M37.2528 43.8891L63.5711 11.6997" fill="none" opacity="1" stroke="#000000" stroke-linecap="butt" stroke-linejoin="round" stroke-width="5.2426"/>
<path d="M89.7145 41.7148L63.5711 11.6997" fill="none" opacity="1" stroke="#000000" stroke-linecap="butt" stroke-linejoin="round" stroke-width="5.2426"/>
<path d="M40.9316 41.7148L88.4102 41.7148" fill="none" opacity="1" stroke="#000000" stroke-linecap="butt" stroke-linejoin="round" stroke-width="5.2426"/>
<path d="M40.2154 41.9793L63.5711 30.4038" fill="none" opacity="1" stroke="#000000" stroke-linecap="butt" stroke-linejoin="round" stroke-width="5.2426"/>
<path d="M88.5861 41.6194L64.8519 30.8155" fill="none" opacity="1" stroke="#000000" stroke-linecap="butt" stroke-linejoin="round" stroke-width="5.2426"/>
</g>
</svg>
