<?xml version="1.0" encoding="UTF-8" standalone="no"?>
<!DOCTYPE svg PUBLIC "-//W3C//DTD SVG 1.1//EN" "http://www.w3.org/Graphics/SVG/1.1/DTD/svg11.dtd">
<!-- Created with Vectornator (http://vectornator.io/) -->
<svg height="100%" stroke-miterlimit="10" style="fill-rule:nonzero;clip-rule:evenodd;stroke-linecap:round;stroke-linejoin:round;" version="1.1" viewBox="0 0 100 100" width="100%" xml:space="preserve" xmlns="http://www.w3.org/2000/svg" xmlns:vectornator="http://vectornator.io" xmlns:xlink="http://www.w3.org/1999/xlink">
<defs/>
<g id="Layer-1" vectornator:layerName="Layer 1">
<path d="M9.53693 42.001L9.55396 55.0401" fill="none" opacity="1" stroke="#000000" stroke-linecap="round" stroke-linejoin="round" stroke-width="2.0144"/>
<path d="M6.95011 44.7703L6.95814 52.0723" fill="none" opacity="1" stroke="#000000" stroke-linecap="round" stroke-linejoin="round" stroke-width="2.0144"/>
<path d="M14.9443 30.7869L15.0706 68.8049" fill="none" opacity="1" stroke="#000000" stroke-linecap="round" stroke-linejoin="round" stroke-width="2.0144"/>
<path d="M12.1821 34.421L12.2162 38.1651L12.1483 63.7005" fill="none" opacity="1" stroke="#000000" stroke-linecap="round" stroke-linejoin="round" stroke-width="2.0144"/>
<path d="M17.624 34.5881L17.8565 63.5895" fill="none" opacity="1" stroke="#000000" stroke-linecap="round" stroke-linejoin="round" stroke-width="2.0144"/>
<path d="M20.3551 41.3096L20.3875 55.2921" fill="none" opacity="1" stroke="#000000" stroke-linecap="round" stroke-linejoin="round" stroke-width="2.0144"/>
<path d="M22.9232 45.1986L23.0191 52.0107" fill="none" opacity="1" stroke="#000000" stroke-linecap="round" stroke-linejoin="round" stroke-width="2.0144"/>
<path d="M25.4344 46.0393L25.4569 50.7325" fill="none" opacity="1" stroke="#000000" stroke-linecap="round" stroke-linejoin="round" stroke-width="2.0144"/>
<path d="M4.31279 47.063L4.31279 50.2485" fill="none" opacity="1" stroke="#000000" stroke-linecap="round" stroke-linejoin="round" stroke-width="2.0144"/>
<path d="M1.7369 47.9337L1.7369 49.6807" fill="none" opacity="1" stroke="#000000" stroke-linecap="round" stroke-linejoin="round" stroke-width="2.0144"/>
<path d="M30.322 47.6424L30.3289 49.0875" fill="none" opacity="1" stroke="#000000" stroke-linecap="round" stroke-linejoin="round" stroke-width="2.0144"/>
<path d="M27.8791 46.9155L27.9329 49.8896" fill="none" opacity="1" stroke="#000000" stroke-linecap="round" stroke-linejoin="round" stroke-width="2.0144"/>
<path d="M32.7624 46.381L32.7946 50.4132" fill="none" opacity="1" stroke="#000000" stroke-linecap="round" stroke-linejoin="round" stroke-width="2.0144"/>
<path d="M35.1242 47.3456L35.1478 49.2629" fill="none" opacity="1" stroke="#000000" stroke-linecap="round" stroke-linejoin="round" stroke-width="2.0144"/>
<path d="M37.5329 45.2632L37.5617 51.1906" fill="none" opacity="1" stroke="#000000" stroke-linecap="round" stroke-linejoin="round" stroke-width="2.0144"/>
<path d="M39.9932 46.4363L40.0176 48.4183L40.0413 50.3308" fill="none" opacity="1" stroke="#000000" stroke-linecap="round" stroke-linejoin="round" stroke-width="2.0144"/>
<path d="M42.5239 47.2302L42.5133 49.3242" fill="none" opacity="1" stroke="#000000" stroke-linecap="round" stroke-linejoin="round" stroke-width="2.0144"/>
<path d="M75.2431 70.9252L75.1456 78.8827" fill="none" opacity="1" stroke="#000000" stroke-linecap="round" stroke-linejoin="round" stroke-width="2.0144"/>
<path d="M80.7037 68.2525L80.8988 94.4781" fill="none" opacity="1" stroke="#000000" stroke-linecap="round" stroke-linejoin="round" stroke-width="2.0144"/>
<path d="M78.1264 54.2647L78.0158 77.0175" fill="none" opacity="1" stroke="#000000" stroke-linecap="round" stroke-linejoin="round" stroke-width="2.0144"/>
<path d="M83.4584 72.2179L83.4206 75.5987" fill="none" opacity="1" stroke="#000000" stroke-linecap="round" stroke-linejoin="round" stroke-width="2.0144"/>
<path d="M86.1258 73.3064L86.1258 74.3962" fill="none" opacity="1" stroke="#000000" stroke-linecap="round" stroke-linejoin="round" stroke-width="2.0144"/>
<path d="M72.654 72.9281L72.6308 75.535" fill="none" opacity="1" stroke="#000000" stroke-linecap="round" stroke-linejoin="round" stroke-width="2.0144"/>
<path d="M74.8766 18.2159L74.8936 31.2549" fill="none" opacity="1" stroke="#000000" stroke-linecap="round" stroke-linejoin="round" stroke-width="2.0144"/>
<path d="M72.2897 20.9851L72.2978 28.2871" fill="none" opacity="1" stroke="#000000" stroke-linecap="round" stroke-linejoin="round" stroke-width="2.0144"/>
<path d="M80.448 4.92126L80.4635 48.1975" fill="none" opacity="1" stroke="#000000" stroke-linecap="round" stroke-linejoin="round" stroke-width="2.0144"/>
<path d="M77.5766 10.6352L77.5918 40.2454" fill="none" opacity="1" stroke="#000000" stroke-linecap="round" stroke-linejoin="round" stroke-width="2.0144"/>
<path d="M83.0352 12.6295L83.2601 37.6182" fill="none" opacity="1" stroke="#000000" stroke-linecap="round" stroke-linejoin="round" stroke-width="2.0144"/>
<path d="M85.7445 17.2754L85.7769 31.2579" fill="none" opacity="1" stroke="#000000" stroke-linecap="round" stroke-linejoin="round" stroke-width="2.0144"/>
<path d="M88.2628 20.8157L88.3588 27.6277" fill="none" opacity="1" stroke="#000000" stroke-linecap="round" stroke-linejoin="round" stroke-width="2.0144"/>
<path d="M90.8239 22.0548L90.8464 26.7481" fill="none" opacity="1" stroke="#000000" stroke-linecap="round" stroke-linejoin="round" stroke-width="2.0144"/>
<path d="M69.6026 23.1284L69.6026 26.3139" fill="none" opacity="1" stroke="#000000" stroke-linecap="round" stroke-linejoin="round" stroke-width="2.0144"/>
<path d="M67.0531 23.9011L67.0531 25.6481" fill="none" opacity="1" stroke="#000000" stroke-linecap="round" stroke-linejoin="round" stroke-width="2.0144"/>
<path d="M93.3183 22.9311L93.3721 25.9051" fill="none" opacity="1" stroke="#000000" stroke-linecap="round" stroke-linejoin="round" stroke-width="2.0144"/>
<path d="M95.7912 23.5205L95.8333 25.2734" fill="none" opacity="1" stroke="#000000" stroke-linecap="round" stroke-linejoin="round" stroke-width="2.0144"/>
<path d="M98.2359 23.9422L98.2646 24.9133" fill="none" opacity="1" stroke="#000000" stroke-linecap="round" stroke-linejoin="round" stroke-width="2.0144"/>
<path d="M88.585 73.3399L88.6136 74.3109" fill="none" opacity="1" stroke="#000000" stroke-linecap="round" stroke-linejoin="round" stroke-width="2.0144"/>
<path d="M91.1499 73.3457L91.1786 74.3168" fill="none" opacity="1" stroke="#000000" stroke-linecap="round" stroke-linejoin="round" stroke-width="2.0144"/>
<path d="M70.0363 73.4911L70.0566 74.4624" fill="none" opacity="1" stroke="#000000" stroke-linecap="round" stroke-linejoin="round" stroke-width="2.0144"/>
<path d="M67.532 73.3134L67.5606 74.2844" fill="none" opacity="1" stroke="#000000" stroke-linecap="round" stroke-linejoin="round" stroke-width="2.0144"/>
<path d="M52.2284 39.3307L53.6968 39.3307L53.6968 40.8655L52.2284 40.8655L52.2284 39.3307ZM49.7418 33.4204C49.7418 32.3579 50.0419 31.5032 50.642 30.8564C51.2421 30.2095 52.0661 29.8861 53.1138 29.8861C54.0829 29.8861 54.8589 30.1628 55.4418 30.7162C56.0247 31.2696 56.3162 31.9767 56.3162 32.8375C56.3162 33.3589 56.2092 33.782 55.9952 34.1066C55.7812 34.4313 55.3496 34.9085 54.7002 35.5381C54.228 35.9956 53.9218 36.3829 53.7816 36.7002C53.6414 37.0175 53.5713 37.486 53.5713 38.1059L52.2579 38.1059C52.2579 37.4024 52.3415 36.8355 52.5088 36.4051C52.676 35.9747 53.0425 35.4815 53.6082 34.9257L54.1985 34.3428C54.3756 34.1755 54.5182 34.0009 54.6265 33.8189C54.8232 33.4991 54.9216 33.1671 54.9216 32.8228C54.9216 32.3407 54.7777 31.9226 54.49 31.5684C54.2022 31.2142 53.7263 31.0371 53.0622 31.0371C52.2407 31.0371 51.6726 31.3421 51.3577 31.9521C51.1806 32.2915 51.0798 32.7809 51.0552 33.4204L49.7418 33.4204Z" fill="#000000" opacity="1" stroke="#000000" stroke-linecap="round" stroke-linejoin="round" stroke-width="1" vectornator:blendMode="lighten"/>
<path d="M52.9456 65.1775L54.414 65.1775L54.414 66.7122L52.9456 66.7122L52.9456 65.1775ZM50.4591 59.2672C50.4591 58.2047 50.7591 57.35 51.3592 56.7031C51.9594 56.0563 52.7833 55.7328 53.8311 55.7328C54.8001 55.7328 55.5761 56.0095 56.159 56.5629C56.7419 57.1163 57.0334 57.8235 57.0334 58.6843C57.0334 59.2057 56.9264 59.6288 56.7124 59.9534C56.4985 60.2781 56.0668 60.7552 55.4175 61.3849C54.9453 61.8423 54.639 62.2297 54.4988 62.547C54.3587 62.8643 54.2886 63.3328 54.2886 63.9526L52.9752 63.9526C52.9752 63.2492 53.0588 62.6823 53.226 62.2519C53.3933 61.8214 53.7598 61.3283 54.3254 60.7724L54.9157 60.1895C55.0928 60.0223 55.2355 59.8477 55.3437 59.6657C55.5405 59.3459 55.6388 59.0139 55.6388 58.6695C55.6388 58.1875 55.495 57.7693 55.2072 57.4152C54.9194 57.061 54.4435 56.8839 53.7794 56.8839C52.9579 56.8839 52.3898 57.1889 52.075 57.7989C51.8979 58.1383 51.797 58.6277 51.7724 59.2672L50.4591 59.2672Z" fill="#000000" opacity="1" stroke="#000000" stroke-linecap="round" stroke-linejoin="round" stroke-width="1" vectornator:blendMode="lighten" vectornator:layerName="Text 2"/>
<path d="M43.023 43.1652L49.1123 38.5916" fill="none" opacity="1" stroke="#000000" stroke-linecap="round" stroke-linejoin="round" stroke-width="2.0144" vectornator:blendMode="lighten"/>
<path d="M93.4478 73.2028L93.4764 74.1739" fill="none" opacity="1" stroke="#000000" stroke-linecap="round" stroke-linejoin="round" stroke-width="2.0144"/>
<path d="M95.9335 72.7147L95.9755 74.4676" fill="none" opacity="1" stroke="#000000" stroke-linecap="round" stroke-linejoin="round" stroke-width="2.0144"/>
<path d="M42.934 52.8115L48.3186 57.7694" fill="none" opacity="1" stroke="#000000" stroke-linecap="round" stroke-linejoin="round" stroke-width="2.0144" vectornator:blendMode="lighten"/>
<path d="M58.5745 31.7814L64.9247 27.0293" fill="none" opacity="1" stroke="#000000" stroke-linecap="round" stroke-linejoin="round" stroke-width="2.0144" vectornator:blendMode="lighten"/>
<path d="M58.3677 66L63.8094 71.0964" fill="none" opacity="1" stroke="#000000" stroke-linecap="round" stroke-linejoin="round" stroke-width="2.0144" vectornator:blendMode="lighten"/>
</g>
<g id="Layer-2" vectornator:layerName="Layer 2"/>
</svg>
