<?xml version="1.0" encoding="UTF-8" standalone="no"?>
<!-- Created with Vectornator (http://vectornator.io/) -->

<svg
   height="100%"
   stroke-miterlimit="10"
   style="fill-rule:nonzero;clip-rule:evenodd;stroke-linecap:round;stroke-linejoin:round;"
   version="1.1"
   viewBox="0 0 100 100"
   width="100%"
   xml:space="preserve"
   id="svg48"
   sodipodi:docname="matched_click_classifier.svg"
   inkscape:version="1.3.2 (091e20e, 2023-11-25)"
   xmlns:inkscape="http://www.inkscape.org/namespaces/inkscape"
   xmlns:sodipodi="http://sodipodi.sourceforge.net/DTD/sodipodi-0.dtd"
   xmlns="http://www.w3.org/2000/svg"
   xmlns:svg="http://www.w3.org/2000/svg"
   xmlns:vectornator="http://vectornator.io"><sodipodi:namedview
   id="namedview48"
   pagecolor="#ffffff"
   bordercolor="#666666"
   borderopacity="1.0"
   inkscape:showpageshadow="2"
   inkscape:pageopacity="0.0"
   inkscape:pagecheckerboard="0"
   inkscape:deskcolor="#d1d1d1"
   inkscape:zoom="2.36"
   inkscape:cx="50.211864"
   inkscape:cy="50.211864"
   inkscape:window-width="1400"
   inkscape:window-height="950"
   inkscape:window-x="0"
   inkscape:window-y="25"
   inkscape:window-maximized="0"
   inkscape:current-layer="svg48" />
<defs
   id="defs1">
















































</defs>
<path
   d="M 9.53693,42.001 9.55396,55.0401"
   fill="none"
   opacity="1"
   stroke="#000000"
   stroke-linecap="round"
   stroke-linejoin="round"
   stroke-width="2.0144"
   id="path1" /><path
   d="m 6.95011,44.7703 0.00803,7.302"
   fill="none"
   opacity="1"
   stroke="#000000"
   stroke-linecap="round"
   stroke-linejoin="round"
   stroke-width="2.0144"
   id="path2" /><path
   d="m 14.9443,30.7869 0.1263,38.018"
   fill="none"
   opacity="1"
   stroke="#000000"
   stroke-linecap="round"
   stroke-linejoin="round"
   stroke-width="2.0144"
   id="path3" /><path
   d="m 12.1821,34.421 0.0341,3.7441 -0.0679,25.5354"
   fill="none"
   opacity="1"
   stroke="#000000"
   stroke-linecap="round"
   stroke-linejoin="round"
   stroke-width="2.0144"
   id="path4" /><path
   d="m 17.624,34.5881 0.2325,29.0014"
   fill="none"
   opacity="1"
   stroke="#000000"
   stroke-linecap="round"
   stroke-linejoin="round"
   stroke-width="2.0144"
   id="path5" /><path
   d="m 20.3551,41.3096 0.0324,13.9825"
   fill="none"
   opacity="1"
   stroke="#000000"
   stroke-linecap="round"
   stroke-linejoin="round"
   stroke-width="2.0144"
   id="path6" /><path
   d="m 22.9232,45.1986 0.0959,6.8121"
   fill="none"
   opacity="1"
   stroke="#000000"
   stroke-linecap="round"
   stroke-linejoin="round"
   stroke-width="2.0144"
   id="path7" /><path
   d="m 25.4344,46.0393 0.0225,4.6932"
   fill="none"
   opacity="1"
   stroke="#000000"
   stroke-linecap="round"
   stroke-linejoin="round"
   stroke-width="2.0144"
   id="path8" /><path
   d="m 4.31279,47.063 v 3.1855"
   fill="none"
   opacity="1"
   stroke="#000000"
   stroke-linecap="round"
   stroke-linejoin="round"
   stroke-width="2.0144"
   id="path9" /><path
   d="m 1.7369,47.9337 v 1.747"
   fill="none"
   opacity="1"
   stroke="#000000"
   stroke-linecap="round"
   stroke-linejoin="round"
   stroke-width="2.0144"
   id="path10" /><path
   d="m 30.322,47.6424 0.0069,1.4451"
   fill="none"
   opacity="1"
   stroke="#000000"
   stroke-linecap="round"
   stroke-linejoin="round"
   stroke-width="2.0144"
   id="path11" /><path
   d="m 27.8791,46.9155 0.0538,2.9741"
   fill="none"
   opacity="1"
   stroke="#000000"
   stroke-linecap="round"
   stroke-linejoin="round"
   stroke-width="2.0144"
   id="path12" /><path
   d="m 32.7624,46.381 0.0322,4.0322"
   fill="none"
   opacity="1"
   stroke="#000000"
   stroke-linecap="round"
   stroke-linejoin="round"
   stroke-width="2.0144"
   id="path13" /><path
   d="m 35.1242,47.3456 0.0236,1.9173"
   fill="none"
   opacity="1"
   stroke="#000000"
   stroke-linecap="round"
   stroke-linejoin="round"
   stroke-width="2.0144"
   id="path14" /><path
   d="m 37.5329,45.2632 0.0288,5.9274"
   fill="none"
   opacity="1"
   stroke="#000000"
   stroke-linecap="round"
   stroke-linejoin="round"
   stroke-width="2.0144"
   id="path15" /><path
   d="m 39.9932,46.4363 0.0244,1.982 0.0237,1.9125"
   fill="none"
   opacity="1"
   stroke="#000000"
   stroke-linecap="round"
   stroke-linejoin="round"
   stroke-width="2.0144"
   id="path16" /><path
   d="m 42.5239,47.2302 -0.0106,2.094"
   fill="none"
   opacity="1"
   stroke="#000000"
   stroke-linecap="round"
   stroke-linejoin="round"
   stroke-width="2.0144"
   id="path17" /><path
   d="m 75.2431,70.9252 -0.0975,7.9575"
   fill="none"
   opacity="1"
   stroke="#000000"
   stroke-linecap="round"
   stroke-linejoin="round"
   stroke-width="2.0144"
   id="path18" /><path
   d="m 80.7037,68.2525 0.1951,26.2256"
   fill="none"
   opacity="1"
   stroke="#000000"
   stroke-linecap="round"
   stroke-linejoin="round"
   stroke-width="2.0144"
   id="path19" /><path
   d="M 78.1264,54.2647 78.0158,77.0175"
   fill="none"
   opacity="1"
   stroke="#000000"
   stroke-linecap="round"
   stroke-linejoin="round"
   stroke-width="2.0144"
   id="path20" /><path
   d="m 83.4584,72.2179 -0.0378,3.3808"
   fill="none"
   opacity="1"
   stroke="#000000"
   stroke-linecap="round"
   stroke-linejoin="round"
   stroke-width="2.0144"
   id="path21" /><path
   d="m 86.1258,73.3064 v 1.0898"
   fill="none"
   opacity="1"
   stroke="#000000"
   stroke-linecap="round"
   stroke-linejoin="round"
   stroke-width="2.0144"
   id="path22" /><path
   d="M 72.654,72.9281 72.6308,75.535"
   fill="none"
   opacity="1"
   stroke="#000000"
   stroke-linecap="round"
   stroke-linejoin="round"
   stroke-width="2.0144"
   id="path23" /><path
   d="m 74.8766,18.2159 0.017,13.039"
   fill="none"
   opacity="1"
   stroke="#000000"
   stroke-linecap="round"
   stroke-linejoin="round"
   stroke-width="2.0144"
   id="path24" /><path
   d="m 72.2897,20.9851 0.0081,7.302"
   fill="none"
   opacity="1"
   stroke="#000000"
   stroke-linecap="round"
   stroke-linejoin="round"
   stroke-width="2.0144"
   id="path25" /><path
   d="M 80.448,4.92126 80.4635,48.1975"
   fill="none"
   opacity="1"
   stroke="#000000"
   stroke-linecap="round"
   stroke-linejoin="round"
   stroke-width="2.0144"
   id="path26" /><path
   d="m 77.5766,10.6352 0.0152,29.6102"
   fill="none"
   opacity="1"
   stroke="#000000"
   stroke-linecap="round"
   stroke-linejoin="round"
   stroke-width="2.0144"
   id="path27" /><path
   d="m 83.0352,12.6295 0.2249,24.9887"
   fill="none"
   opacity="1"
   stroke="#000000"
   stroke-linecap="round"
   stroke-linejoin="round"
   stroke-width="2.0144"
   id="path28" /><path
   d="m 85.7445,17.2754 0.0324,13.9825"
   fill="none"
   opacity="1"
   stroke="#000000"
   stroke-linecap="round"
   stroke-linejoin="round"
   stroke-width="2.0144"
   id="path29" /><path
   d="m 88.2628,20.8157 0.096,6.812"
   fill="none"
   opacity="1"
   stroke="#000000"
   stroke-linecap="round"
   stroke-linejoin="round"
   stroke-width="2.0144"
   id="path30" /><path
   d="m 90.8239,22.0548 0.0225,4.6933"
   fill="none"
   opacity="1"
   stroke="#000000"
   stroke-linecap="round"
   stroke-linejoin="round"
   stroke-width="2.0144"
   id="path31" /><path
   d="m 69.6026,23.1284 v 3.1855"
   fill="none"
   opacity="1"
   stroke="#000000"
   stroke-linecap="round"
   stroke-linejoin="round"
   stroke-width="2.0144"
   id="path32" /><path
   d="m 67.0531,23.9011 v 1.747"
   fill="none"
   opacity="1"
   stroke="#000000"
   stroke-linecap="round"
   stroke-linejoin="round"
   stroke-width="2.0144"
   id="path33" /><path
   d="m 93.3183,22.9311 0.0538,2.974"
   fill="none"
   opacity="1"
   stroke="#000000"
   stroke-linecap="round"
   stroke-linejoin="round"
   stroke-width="2.0144"
   id="path34" /><path
   d="m 95.7912,23.5205 0.0421,1.7529"
   fill="none"
   opacity="1"
   stroke="#000000"
   stroke-linecap="round"
   stroke-linejoin="round"
   stroke-width="2.0144"
   id="path35" /><path
   d="m 98.2359,23.9422 0.0287,0.9711"
   fill="none"
   opacity="1"
   stroke="#000000"
   stroke-linecap="round"
   stroke-linejoin="round"
   stroke-width="2.0144"
   id="path36" /><path
   d="m 88.585,73.3399 0.0286,0.971"
   fill="none"
   opacity="1"
   stroke="#000000"
   stroke-linecap="round"
   stroke-linejoin="round"
   stroke-width="2.0144"
   id="path37" /><path
   d="m 91.1499,73.3457 0.0287,0.9711"
   fill="none"
   opacity="1"
   stroke="#000000"
   stroke-linecap="round"
   stroke-linejoin="round"
   stroke-width="2.0144"
   id="path38" /><path
   d="m 70.0363,73.4911 0.0203,0.9713"
   fill="none"
   opacity="1"
   stroke="#000000"
   stroke-linecap="round"
   stroke-linejoin="round"
   stroke-width="2.0144"
   id="path39" /><path
   d="m 67.532,73.3134 0.0286,0.971"
   fill="none"
   opacity="1"
   stroke="#000000"
   stroke-linecap="round"
   stroke-linejoin="round"
   stroke-width="2.0144"
   id="path40" /><path
   d="m 52.2284,39.3307 h 1.4684 v 1.5348 h -1.4684 z m -2.4866,-5.9103 c 0,-1.0625 0.3001,-1.9172 0.9002,-2.564 0.6001,-0.6469 1.4241,-0.9703 2.4718,-0.9703 0.9691,0 1.7451,0.2767 2.328,0.8301 0.5829,0.5534 0.8744,1.2605 0.8744,2.1213 0,0.5214 -0.107,0.9445 -0.321,1.2691 -0.214,0.3247 -0.6456,0.8019 -1.295,1.4315 -0.4722,0.4575 -0.7784,0.8448 -0.9186,1.1621 -0.1402,0.3173 -0.2103,0.7858 -0.2103,1.4057 h -1.3134 c 0,-0.7035 0.0836,-1.2704 0.2509,-1.7008 0.1672,-0.4304 0.5337,-0.9236 1.0994,-1.4794 l 0.5903,-0.5829 c 0.1771,-0.1673 0.3197,-0.3419 0.428,-0.5239 0.1967,-0.3198 0.2951,-0.6518 0.2951,-0.9961 0,-0.4821 -0.1439,-0.9002 -0.4316,-1.2544 -0.2878,-0.3542 -0.7637,-0.5313 -1.4278,-0.5313 -0.8215,0 -1.3896,0.305 -1.7045,0.915 -0.1771,0.3394 -0.2779,0.8288 -0.3025,1.4683 z"
   fill="#000000"
   opacity="1"
   stroke="#000000"
   stroke-linecap="round"
   stroke-linejoin="round"
   stroke-width="1"
   vectornator:blendMode="lighten"
   id="path41" /><path
   d="m 52.9456,65.1775 h 1.4684 v 1.5347 h -1.4684 z m -2.4865,-5.9103 c 0,-1.0625 0.3,-1.9172 0.9001,-2.5641 0.6002,-0.6468 1.4241,-0.9703 2.4719,-0.9703 0.969,0 1.745,0.2767 2.3279,0.8301 0.5829,0.5534 0.8744,1.2606 0.8744,2.1214 0,0.5214 -0.107,0.9445 -0.321,1.2691 -0.2139,0.3247 -0.6456,0.8018 -1.2949,1.4315 -0.4722,0.4574 -0.7785,0.8448 -0.9187,1.1621 -0.1401,0.3173 -0.2102,0.7858 -0.2102,1.4056 h -1.3134 c 0,-0.7034 0.0836,-1.2703 0.2508,-1.7007 0.1673,-0.4305 0.5338,-0.9236 1.0994,-1.4795 l 0.5903,-0.5829 c 0.1771,-0.1672 0.3198,-0.3418 0.428,-0.5238 0.1968,-0.3198 0.2951,-0.6518 0.2951,-0.9962 0,-0.482 -0.1438,-0.9002 -0.4316,-1.2543 -0.2878,-0.3542 -0.7637,-0.5313 -1.4278,-0.5313 -0.8215,0 -1.3896,0.305 -1.7044,0.915 -0.1771,0.3394 -0.278,0.8288 -0.3026,1.4683 z"
   fill="#000000"
   opacity="1"
   stroke="#000000"
   stroke-linecap="round"
   stroke-linejoin="round"
   stroke-width="1"
   vectornator:blendMode="lighten"
   vectornator:layerName="Text 2"
   id="path42" /><path
   d="m 43.023,43.1652 6.0893,-4.5736"
   fill="none"
   opacity="1"
   stroke="#000000"
   stroke-linecap="round"
   stroke-linejoin="round"
   stroke-width="2.0144"
   vectornator:blendMode="lighten"
   id="path43" /><path
   d="m 93.4478,73.2028 0.0286,0.9711"
   fill="none"
   opacity="1"
   stroke="#000000"
   stroke-linecap="round"
   stroke-linejoin="round"
   stroke-width="2.0144"
   id="path44" /><path
   d="m 95.9335,72.7147 0.042,1.7529"
   fill="none"
   opacity="1"
   stroke="#000000"
   stroke-linecap="round"
   stroke-linejoin="round"
   stroke-width="2.0144"
   id="path45" /><path
   d="m 42.934,52.8115 5.3846,4.9579"
   fill="none"
   opacity="1"
   stroke="#000000"
   stroke-linecap="round"
   stroke-linejoin="round"
   stroke-width="2.0144"
   vectornator:blendMode="lighten"
   id="path46" /><path
   d="m 58.5745,31.7814 6.3502,-4.7521"
   fill="none"
   opacity="1"
   stroke="#000000"
   stroke-linecap="round"
   stroke-linejoin="round"
   stroke-width="2.0144"
   vectornator:blendMode="lighten"
   id="path47" /><path
   d="m 58.3677,66 5.4417,5.0964"
   fill="none"
   opacity="1"
   stroke="#000000"
   stroke-linecap="round"
   stroke-linejoin="round"
   stroke-width="2.0144"
   vectornator:blendMode="lighten"
   id="path48" />
<g
   id="Layer-2"
   vectornator:layerName="Layer 2" />
</svg>
