<svg xmlns="http://www.w3.org/2000/svg" xmlns:xlink="http://www.w3.org/1999/xlink" version="1.1" x="0px" y="0px" viewBox="0 0 100 125" style="enable-background:new 0 0 100 100;" xml:space="preserve"><path d="M6.5,45.96c-0.829,0-1.5,0.671-1.5,1.5v5.079c0,0.829,0.671,1.5,1.5,1.5S8,53.368,8,52.54V47.46  C8,46.632,7.329,45.96,6.5,45.96z"/><path d="M12.3,41.522c-0.829,0-1.5,0.671-1.5,1.5v13.955c0,0.829,0.671,1.5,1.5,1.5s1.5-0.671,1.5-1.5V43.022  C13.8,42.194,13.128,41.522,12.3,41.522z"/><path d="M18.1,44.622c-0.829,0-1.5,0.671-1.5,1.5v7.756c0,0.829,0.671,1.5,1.5,1.5s1.5-0.671,1.5-1.5v-7.756  C19.6,45.293,18.929,44.622,18.1,44.622z"/><path d="M23.9,34.843c-0.829,0-1.5,0.671-1.5,1.5v27.313c0,0.829,0.671,1.5,1.5,1.5s1.5-0.671,1.5-1.5V36.343  C25.4,35.515,24.729,34.843,23.9,34.843z"/><path d="M29.7,28.604c-0.829,0-1.5,0.671-1.5,1.5v39.791c0,0.829,0.671,1.5,1.5,1.5s1.5-0.671,1.5-1.5V30.104  C31.2,29.276,30.529,28.604,29.7,28.604z"/><path d="M35.5,7.18c-0.829,0-1.5,0.671-1.5,1.5v82.64c0,0.829,0.671,1.5,1.5,1.5s1.5-0.671,1.5-1.5V8.68  C37,7.852,36.329,7.18,35.5,7.18z"/><path d="M41.3,13.768c-0.829,0-1.5,0.671-1.5,1.5v69.465c0,0.829,0.671,1.5,1.5,1.5s1.5-0.671,1.5-1.5V15.268  C42.8,14.439,42.128,13.768,41.3,13.768z"/><path d="M47.1,20.849c-0.829,0-1.5,0.671-1.5,1.5v55.303c0,0.829,0.671,1.5,1.5,1.5s1.5-0.671,1.5-1.5V22.349  C48.6,21.52,47.929,20.849,47.1,20.849z"/><path d="M52.9,30.88c-0.829,0-1.5,0.671-1.5,1.5v35.24c0,0.829,0.671,1.5,1.5,1.5s1.5-0.671,1.5-1.5V32.38  C54.4,31.551,53.729,30.88,52.9,30.88z"/><path d="M58.7,40.744c-0.829,0-1.5,0.671-1.5,1.5v15.512c0,0.829,0.671,1.5,1.5,1.5s1.5-0.671,1.5-1.5V42.244  C60.2,41.416,59.529,40.744,58.7,40.744z"/><path d="M64.5,33.457c-0.829,0-1.5,0.671-1.5,1.5v30.087c0,0.829,0.671,1.5,1.5,1.5s1.5-0.671,1.5-1.5V34.957  C66,34.128,65.329,33.457,64.5,33.457z"/><path d="M70.3,39.529c-0.829,0-1.5,0.671-1.5,1.5v17.942c0,0.829,0.671,1.5,1.5,1.5s1.5-0.671,1.5-1.5V41.029  C71.8,40.2,71.128,39.529,70.3,39.529z"/><path d="M76.1,43.442c-0.829,0-1.5,0.671-1.5,1.5v10.116c0,0.829,0.671,1.5,1.5,1.5s1.5-0.671,1.5-1.5V44.942  C77.6,44.113,76.929,43.442,76.1,43.442z"/><path d="M81.9,41.656c-0.829,0-1.5,0.671-1.5,1.5v13.688c0,0.829,0.671,1.5,1.5,1.5s1.5-0.671,1.5-1.5V43.156  C83.4,42.328,82.729,41.656,81.9,41.656z"/><path d="M87.7,45.96c-0.829,0-1.5,0.671-1.5,1.5v5.079c0,0.829,0.671,1.5,1.5,1.5s1.5-0.671,1.5-1.5V47.46  C89.2,46.632,88.529,45.96,87.7,45.96z"/><path d="M93.5,46.982c-0.829,0-1.5,0.671-1.5,1.5v3.035c0,0.829,0.671,1.5,1.5,1.5s1.5-0.671,1.5-1.5v-3.035  C95,47.654,94.329,46.982,93.5,46.982z"/><text x="0" y="115" fill="#000000" font-size="5px" font-weight="bold" font-family="'Helvetica Neue', Helvetica, Arial-Unicode, Arial, Sans-serif">Created by Maxim Kulikov</text><text x="0" y="120" fill="#000000" font-size="5px" font-weight="bold" font-family="'Helvetica Neue', Helvetica, Arial-Unicode, Arial, Sans-serif">from the Noun Project</text></svg>